<svg xmlns="http://www.w3.org/2000/svg" width="1050" height="500" viewBox="0 0 1050 500" role="img" aria-label="Google Sheet and Keep source sync">
  <rect width="1050" height="500" fill="#f8fafc"/>
  <text x="40" y="48" font-family="Segoe UI, Arial, sans-serif" font-size="28" font-weight="700" fill="#111827">Google source sync</text>
  <text x="40" y="78" font-family="Segoe UI, Arial, sans-serif" font-size="15" fill="#4b5563">Each company can use files, Google Sheets, or its own Google Keep note.</text>
  <defs>
    <marker id="arrow3" markerWidth="12" markerHeight="12" refX="10" refY="6" orient="auto" markerUnits="strokeWidth">
      <path d="M2,2 L10,6 L2,10 Z" fill="#2563eb"/>
    </marker>
  </defs>
  <g font-family="Segoe UI, Arial, sans-serif">
    <rect x="70" y="135" width="210" height="95" rx="10" fill="#ffffff" stroke="#cbd5e1"/>
    <rect x="410" y="135" width="230" height="95" rx="10" fill="#ffffff" stroke="#cbd5e1"/>
    <rect x="770" y="135" width="210" height="95" rx="10" fill="#ffffff" stroke="#cbd5e1"/>
    <rect x="70" y="315" width="210" height="95" rx="10" fill="#ffffff" stroke="#cbd5e1"/>
    <rect x="410" y="315" width="230" height="95" rx="10" fill="#ffffff" stroke="#cbd5e1"/>
    <rect x="770" y="315" width="210" height="95" rx="10" fill="#ffffff" stroke="#cbd5e1"/>
    <text x="175" y="170" text-anchor="middle" font-size="18" font-weight="700" fill="#111827">Company Rules</text>
    <text x="175" y="195" text-anchor="middle" font-size="13" fill="#4b5563">per-company source URLs/paths</text>
    <text x="525" y="170" text-anchor="middle" font-size="18" font-weight="700" fill="#111827">Google Sheet</text>
    <text x="525" y="195" text-anchor="middle" font-size="13" fill="#4b5563">OAuth export to local xlsx cache</text>
    <text x="875" y="170" text-anchor="middle" font-size="18" font-weight="700" fill="#111827">Rules Engine</text>
    <text x="875" y="195" text-anchor="middle" font-size="13" fill="#4b5563">loads cached current rules</text>
    <text x="175" y="350" text-anchor="middle" font-size="18" font-weight="700" fill="#111827">Sync Google Keep</text>
    <text x="175" y="375" text-anchor="middle" font-size="13" fill="#4b5563">selected company's Rule Source</text>
    <text x="525" y="350" text-anchor="middle" font-size="18" font-weight="700" fill="#111827">Chrome Extension</text>
    <text x="525" y="375" text-anchor="middle" font-size="13" fill="#4b5563">copies note text to cache</text>
    <text x="875" y="350" text-anchor="middle" font-size="18" font-weight="700" fill="#111827">KEEP EXPORTS</text>
    <text x="875" y="375" text-anchor="middle" font-size="13" fill="#4b5563">local text files LUCAS reads</text>
    <line x1="280" y1="182" x2="400" y2="182" stroke="#2563eb" stroke-width="3" marker-end="url(#arrow3)"/>
    <line x1="640" y1="182" x2="760" y2="182" stroke="#2563eb" stroke-width="3" marker-end="url(#arrow3)"/>
    <line x1="280" y1="362" x2="400" y2="362" stroke="#2563eb" stroke-width="3" marker-end="url(#arrow3)"/>
    <line x1="640" y1="362" x2="760" y2="362" stroke="#2563eb" stroke-width="3" marker-end="url(#arrow3)"/>
  </g>
</svg>
